<?xml version="1.0" encoding="utf-8" standalone="no"?>
<!DOCTYPE svg PUBLIC "-//W3C//DTD SVG 1.1//EN"
  "http://www.w3.org/Graphics/SVG/1.1/DTD/svg11.dtd">
<!-- Created with matplotlib (https://matplotlib.org/) -->
<svg height="324pt" version="1.1" viewBox="0 0 504 324" width="504pt" xmlns="http://www.w3.org/2000/svg" xmlns:xlink="http://www.w3.org/1999/xlink">
 <metadata>
  <rdf:RDF xmlns:cc="http://creativecommons.org/ns#" xmlns:dc="http://purl.org/dc/elements/1.1/" xmlns:rdf="http://www.w3.org/1999/02/22-rdf-syntax-ns#">
   <cc:Work>
    <dc:type rdf:resource="http://purl.org/dc/dcmitype/StillImage"/>
    <dc:date>2020-12-06T20:56:29.923317</dc:date>
    <dc:format>image/svg+xml</dc:format>
    <dc:creator>
     <cc:Agent>
      <dc:title>Matplotlib v3.3.2, https://matplotlib.org/</dc:title>
     </cc:Agent>
    </dc:creator>
   </cc:Work>
  </rdf:RDF>
 </metadata>
 <defs>
  <style type="text/css">*{stroke-linecap:butt;stroke-linejoin:round;}</style>
 </defs>
 <g id="figure_1">
  <g id="patch_1">
   <path d="M 0 324 
L 504 324 
L 504 0 
L 0 0 
z
" style="fill:#ffffff;"/>
  </g>
  <g id="axes_1">
   <g id="patch_2">
    <path d="M 63 288.36 
L 453.6 288.36 
L 453.6 38.88 
L 63 38.88 
z
" style="fill:#ffffff;"/>
   </g>
   <g id="line2d_1">
    <path clip-path="url(#pfd2efc13f2)" d="M 80.754545 277.965 
L 80.754545 70.065 
L 435.845455 70.065 
L 435.845455 277.965 
L 80.754545 277.965 
" style="fill:none;stroke:#0000ff;stroke-dasharray:1.5,2.475;stroke-dashoffset:0;stroke-width:1.5;"/>
   </g>
   <g id="PathCollection_1">
    <defs>
     <path d="M 0 2.236068 
C 0.593012 2.236068 1.161816 2.000462 1.581139 1.581139 
C 2.000462 1.161816 2.236068 0.593012 2.236068 0 
C 2.236068 -0.593012 2.000462 -1.161816 1.581139 -1.581139 
C 1.161816 -2.000462 0.593012 -2.236068 0 -2.236068 
C -0.593012 -2.236068 -1.161816 -2.000462 -1.581139 -1.581139 
C -2.000462 -1.161816 -2.236068 -0.593012 -2.236068 0 
C -2.236068 0.593012 -2.000462 1.161816 -1.581139 1.581139 
C -1.161816 2.000462 -0.593012 2.236068 0 2.236068 
z
" id="m8473272a1e" style="stroke:#4682b4;"/>
    </defs>
    <g clip-path="url(#pfd2efc13f2)">
     <use style="fill:#4682b4;stroke:#4682b4;" x="92.189206" xlink:href="#m8473272a1e" y="150.304903"/>
     <use style="fill:#4682b4;stroke:#4682b4;" x="418.602701" xlink:href="#m8473272a1e" y="233.054984"/>
     <use style="fill:#4682b4;stroke:#4682b4;" x="352.601941" xlink:href="#m8473272a1e" y="217.022655"/>
     <use style="fill:#4682b4;stroke:#4682b4;" x="386.689955" xlink:href="#m8473272a1e" y="250.41359"/>
     <use style="fill:#4682b4;stroke:#4682b4;" x="389.317056" xlink:href="#m8473272a1e" y="199.249354"/>
     <use style="fill:#4682b4;stroke:#4682b4;" x="169.205067" xlink:href="#m8473272a1e" y="223.032163"/>
     <use style="fill:#4682b4;stroke:#4682b4;" x="186.555523" xlink:href="#m8473272a1e" y="221.212663"/>
     <use style="fill:#4682b4;stroke:#4682b4;" x="335.209883" xlink:href="#m8473272a1e" y="190.248787"/>
     <use style="fill:#4682b4;stroke:#4682b4;" x="334.187855" xlink:href="#m8473272a1e" y="267.46298"/>
     <use style="fill:#4682b4;stroke:#4682b4;" x="293.234123" xlink:href="#m8473272a1e" y="249.159685"/>
     <use style="fill:#4682b4;stroke:#4682b4;" x="336.398619" xlink:href="#m8473272a1e" y="168.969824"/>
     <use style="fill:#4682b4;stroke:#4682b4;" x="215.491483" xlink:href="#m8473272a1e" y="228.074722"/>
     <use style="fill:#4682b4;stroke:#4682b4;" x="405.106286" xlink:href="#m8473272a1e" y="137.096983"/>
     <use style="fill:#4682b4;stroke:#4682b4;" x="109.762636" xlink:href="#m8473272a1e" y="217.945089"/>
     <use style="fill:#4682b4;stroke:#4682b4;" x="137.729257" xlink:href="#m8473272a1e" y="210.755732"/>
     <use style="fill:#4682b4;stroke:#4682b4;" x="375.789271" xlink:href="#m8473272a1e" y="107.06401"/>
     <use style="fill:#4682b4;stroke:#4682b4;" x="179.344942" xlink:href="#m8473272a1e" y="255.717443"/>
     <use style="fill:#4682b4;stroke:#4682b4;" x="184.82555" xlink:href="#m8473272a1e" y="190.570279"/>
     <use style="fill:#4682b4;stroke:#4682b4;" x="427.620947" xlink:href="#m8473272a1e" y="199.748746"/>
     <use style="fill:#4682b4;stroke:#4682b4;" x="338.915105" xlink:href="#m8473272a1e" y="213.847222"/>
     <use style="fill:#4682b4;stroke:#4682b4;" x="182.46362" xlink:href="#m8473272a1e" y="191.890058"/>
     <use style="fill:#4682b4;stroke:#4682b4;" x="152.507652" xlink:href="#m8473272a1e" y="186.255398"/>
     <use style="fill:#4682b4;stroke:#4682b4;" x="421.025788" xlink:href="#m8473272a1e" y="232.573287"/>
     <use style="fill:#4682b4;stroke:#4682b4;" x="107.221022" xlink:href="#m8473272a1e" y="113.861761"/>
     <use style="fill:#4682b4;stroke:#4682b4;" x="181.097099" xlink:href="#m8473272a1e" y="255.674985"/>
     <use style="fill:#4682b4;stroke:#4682b4;" x="359.116386" xlink:href="#m8473272a1e" y="203.267765"/>
     <use style="fill:#4682b4;stroke:#4682b4;" x="163.231391" xlink:href="#m8473272a1e" y="219.546256"/>
     <use style="fill:#4682b4;stroke:#4682b4;" x="346.168803" xlink:href="#m8473272a1e" y="205.694948"/>
     <use style="fill:#4682b4;stroke:#4682b4;" x="100.54301" xlink:href="#m8473272a1e" y="211.36906"/>
     <use style="fill:#4682b4;stroke:#4682b4;" x="295.263075" xlink:href="#m8473272a1e" y="269.700845"/>
     <use style="fill:#4682b4;stroke:#4682b4;" x="419.171709" xlink:href="#m8473272a1e" y="211.463319"/>
     <use style="fill:#4682b4;stroke:#4682b4;" x="136.653478" xlink:href="#m8473272a1e" y="216.277149"/>
     <use style="fill:#4682b4;stroke:#4682b4;" x="228.181538" xlink:href="#m8473272a1e" y="276.430376"/>
     <use style="fill:#4682b4;stroke:#4682b4;" x="107.214201" xlink:href="#m8473272a1e" y="200.699449"/>
     <use style="fill:#4682b4;stroke:#4682b4;" x="104.704849" xlink:href="#m8473272a1e" y="190.681685"/>
     <use style="fill:#4682b4;stroke:#4682b4;" x="392.29769" xlink:href="#m8473272a1e" y="81.049532"/>
     <use style="fill:#4682b4;stroke:#4682b4;" x="217.911642" xlink:href="#m8473272a1e" y="276.591249"/>
     <use style="fill:#4682b4;stroke:#4682b4;" x="343.987927" xlink:href="#m8473272a1e" y="131.507843"/>
     <use style="fill:#4682b4;stroke:#4682b4;" x="310.086254" xlink:href="#m8473272a1e" y="208.649749"/>
     <use style="fill:#4682b4;stroke:#4682b4;" x="295.185091" xlink:href="#m8473272a1e" y="269.720907"/>
     <use style="fill:#4682b4;stroke:#4682b4;" x="131.838337" xlink:href="#m8473272a1e" y="137.165813"/>
     <use style="fill:#4682b4;stroke:#4682b4;" x="139.411283" xlink:href="#m8473272a1e" y="250.204394"/>
     <use style="fill:#4682b4;stroke:#4682b4;" x="89.747246" xlink:href="#m8473272a1e" y="113.191043"/>
     <use style="fill:#4682b4;stroke:#4682b4;" x="349.809878" xlink:href="#m8473272a1e" y="243.390422"/>
     <use style="fill:#4682b4;stroke:#4682b4;" x="162.837689" xlink:href="#m8473272a1e" y="262.187466"/>
     <use style="fill:#4682b4;stroke:#4682b4;" x="192.622172" xlink:href="#m8473272a1e" y="190.685965"/>
     <use style="fill:#4682b4;stroke:#4682b4;" x="199.282819" xlink:href="#m8473272a1e" y="252.329488"/>
     <use style="fill:#4682b4;stroke:#4682b4;" x="338.581489" xlink:href="#m8473272a1e" y="137.824832"/>
     <use style="fill:#4682b4;stroke:#4682b4;" x="94.406398" xlink:href="#m8473272a1e" y="218.591801"/>
     <use style="fill:#4682b4;stroke:#4682b4;" x="156.207929" xlink:href="#m8473272a1e" y="227.651663"/>
     <use style="fill:#4682b4;stroke:#4682b4;" x="198.837399" xlink:href="#m8473272a1e" y="275.55636"/>
     <use style="fill:#4682b4;stroke:#4682b4;" x="313.012164" xlink:href="#m8473272a1e" y="241.246459"/>
     <use style="fill:#4682b4;stroke:#4682b4;" x="147.105256" xlink:href="#m8473272a1e" y="182.152622"/>
     <use style="fill:#4682b4;stroke:#4682b4;" x="351.406905" xlink:href="#m8473272a1e" y="139.633242"/>
     <use style="fill:#4682b4;stroke:#4682b4;" x="380.723667" xlink:href="#m8473272a1e" y="262.869085"/>
     <use style="fill:#4682b4;stroke:#4682b4;" x="401.731938" xlink:href="#m8473272a1e" y="120.679537"/>
     <use style="fill:#4682b4;stroke:#4682b4;" x="402.743164" xlink:href="#m8473272a1e" y="247.997021"/>
     <use style="fill:#4682b4;stroke:#4682b4;" x="198.832138" xlink:href="#m8473272a1e" y="190.961611"/>
     <use style="fill:#4682b4;stroke:#4682b4;" x="413.17524" xlink:href="#m8473272a1e" y="160.07532"/>
     <use style="fill:#4682b4;stroke:#4682b4;" x="330.37385" xlink:href="#m8473272a1e" y="189.159012"/>
     <use style="fill:#4682b4;stroke:#4682b4;" x="317.840591" xlink:href="#m8473272a1e" y="214.661625"/>
     <use style="fill:#4682b4;stroke:#4682b4;" x="384.134732" xlink:href="#m8473272a1e" y="173.311995"/>
     <use style="fill:#4682b4;stroke:#4682b4;" x="130.58325" xlink:href="#m8473272a1e" y="244.113698"/>
     <use style="fill:#4682b4;stroke:#4682b4;" x="129.229063" xlink:href="#m8473272a1e" y="147.373358"/>
     <use style="fill:#4682b4;stroke:#4682b4;" x="395.682859" xlink:href="#m8473272a1e" y="90.266903"/>
     <use style="fill:#4682b4;stroke:#4682b4;" x="94.953568" xlink:href="#m8473272a1e" y="271.767672"/>
    </g>
   </g>
   <g id="PathCollection_2">
    <defs>
     <path d="M -3 3 
L 3 -3 
M -3 -3 
L 3 3 
" id="mf39c5df9a0" style="stroke:#8b0000;stroke-width:1.5;"/>
    </defs>
    <g clip-path="url(#pfd2efc13f2)">
     <use style="fill:#8b0000;stroke:#8b0000;stroke-width:1.5;" x="216.604607" xlink:href="#mf39c5df9a0" y="153.038829"/>
     <use style="fill:#8b0000;stroke:#8b0000;stroke-width:1.5;" x="428.357167" xlink:href="#mf39c5df9a0" y="112.118355"/>
     <use style="fill:#8b0000;stroke:#8b0000;stroke-width:1.5;" x="287.525874" xlink:href="#mf39c5df9a0" y="163.049745"/>
     <use style="fill:#8b0000;stroke:#8b0000;stroke-width:1.5;" x="301.65666" xlink:href="#mf39c5df9a0" y="84.293094"/>
     <use style="fill:#8b0000;stroke:#8b0000;stroke-width:1.5;" x="265.842309" xlink:href="#mf39c5df9a0" y="150.539783"/>
     <use style="fill:#8b0000;stroke:#8b0000;stroke-width:1.5;" x="280.711991" xlink:href="#mf39c5df9a0" y="171.774817"/>
     <use style="fill:#8b0000;stroke:#8b0000;stroke-width:1.5;" x="211.247063" xlink:href="#mf39c5df9a0" y="177.072175"/>
     <use style="fill:#8b0000;stroke:#8b0000;stroke-width:1.5;" x="286.708326" xlink:href="#mf39c5df9a0" y="126.5704"/>
     <use style="fill:#8b0000;stroke:#8b0000;stroke-width:1.5;" x="251.992757" xlink:href="#mf39c5df9a0" y="141.576469"/>
     <use style="fill:#8b0000;stroke:#8b0000;stroke-width:1.5;" x="297.396798" xlink:href="#mf39c5df9a0" y="101.897528"/>
     <use style="fill:#8b0000;stroke:#8b0000;stroke-width:1.5;" x="257.427549" xlink:href="#mf39c5df9a0" y="125.936639"/>
     <use style="fill:#8b0000;stroke:#8b0000;stroke-width:1.5;" x="293.355114" xlink:href="#mf39c5df9a0" y="186.628502"/>
     <use style="fill:#8b0000;stroke:#8b0000;stroke-width:1.5;" x="303.390375" xlink:href="#mf39c5df9a0" y="100.44082"/>
     <use style="fill:#8b0000;stroke:#8b0000;stroke-width:1.5;" x="197.605863" xlink:href="#mf39c5df9a0" y="73.88214"/>
     <use style="fill:#8b0000;stroke:#8b0000;stroke-width:1.5;" x="169.602691" xlink:href="#mf39c5df9a0" y="79.14141"/>
     <use style="fill:#8b0000;stroke:#8b0000;stroke-width:1.5;" x="294.417942" xlink:href="#mf39c5df9a0" y="174.418435"/>
     <use style="fill:#8b0000;stroke:#8b0000;stroke-width:1.5;" x="233.015567" xlink:href="#mf39c5df9a0" y="82.316066"/>
     <use style="fill:#8b0000;stroke:#8b0000;stroke-width:1.5;" x="256.367025" xlink:href="#mf39c5df9a0" y="130.018752"/>
     <use style="fill:#8b0000;stroke:#8b0000;stroke-width:1.5;" x="218.391953" xlink:href="#mf39c5df9a0" y="199.520306"/>
     <use style="fill:#8b0000;stroke:#8b0000;stroke-width:1.5;" x="216.646954" xlink:href="#mf39c5df9a0" y="179.147942"/>
     <use style="fill:#8b0000;stroke:#8b0000;stroke-width:1.5;" x="232.363301" xlink:href="#mf39c5df9a0" y="196.669076"/>
     <use style="fill:#8b0000;stroke:#8b0000;stroke-width:1.5;" x="191.833633" xlink:href="#mf39c5df9a0" y="146.196267"/>
     <use style="fill:#8b0000;stroke:#8b0000;stroke-width:1.5;" x="293.609926" xlink:href="#mf39c5df9a0" y="179.817293"/>
     <use style="fill:#8b0000;stroke:#8b0000;stroke-width:1.5;" x="254.044306" xlink:href="#mf39c5df9a0" y="198.744073"/>
     <use style="fill:#8b0000;stroke:#8b0000;stroke-width:1.5;" x="415.445841" xlink:href="#mf39c5df9a0" y="70.347189"/>
     <use style="fill:#8b0000;stroke:#8b0000;stroke-width:1.5;" x="201.927002" xlink:href="#mf39c5df9a0" y="161.872446"/>
     <use style="fill:#8b0000;stroke:#8b0000;stroke-width:1.5;" x="260.500155" xlink:href="#mf39c5df9a0" y="180.85767"/>
     <use style="fill:#8b0000;stroke:#8b0000;stroke-width:1.5;" x="421.641384" xlink:href="#mf39c5df9a0" y="101.922368"/>
     <use style="fill:#8b0000;stroke:#8b0000;stroke-width:1.5;" x="248.464388" xlink:href="#mf39c5df9a0" y="116.089956"/>
     <use style="fill:#8b0000;stroke:#8b0000;stroke-width:1.5;" x="230.573224" xlink:href="#mf39c5df9a0" y="239.709637"/>
     <use style="fill:#8b0000;stroke:#8b0000;stroke-width:1.5;" x="307.559335" xlink:href="#mf39c5df9a0" y="91.485925"/>
     <use style="fill:#8b0000;stroke:#8b0000;stroke-width:1.5;" x="244.428298" xlink:href="#mf39c5df9a0" y="241.312219"/>
     <use style="fill:#8b0000;stroke:#8b0000;stroke-width:1.5;" x="264.254533" xlink:href="#mf39c5df9a0" y="136.520261"/>
     <use style="fill:#8b0000;stroke:#8b0000;stroke-width:1.5;" x="292.047083" xlink:href="#mf39c5df9a0" y="203.558781"/>
    </g>
   </g>
   <g id="matplotlib.axis_1">
    <g id="xtick_1">
     <g id="line2d_2">
      <defs>
       <path d="M 0 0 
L 0 3.5 
" id="mde2624c6c1" style="stroke:#000000;stroke-width:0.8;"/>
      </defs>
      <g>
       <use style="stroke:#000000;stroke-width:0.8;" x="80.754545" xlink:href="#mde2624c6c1" y="288.36"/>
      </g>
     </g>
     <g id="text_1">
      <!-- −2.0 -->
      <g transform="translate(68.613139 302.958438)scale(0.1 -0.1)">
       <defs>
        <path d="M 10.59375 35.5 
L 73.1875 35.5 
L 73.1875 27.203125 
L 10.59375 27.203125 
z
" id="DejaVuSans-8722"/>
        <path d="M 19.1875 8.296875 
L 53.609375 8.296875 
L 53.609375 0 
L 7.328125 0 
L 7.328125 8.296875 
Q 12.9375 14.109375 22.625 23.890625 
Q 32.328125 33.6875 34.8125 36.53125 
Q 39.546875 41.84375 41.421875 45.53125 
Q 43.3125 49.21875 43.3125 52.78125 
Q 43.3125 58.59375 39.234375 62.25 
Q 35.15625 65.921875 28.609375 65.921875 
Q 23.96875 65.921875 18.8125 64.3125 
Q 13.671875 62.703125 7.8125 59.421875 
L 7.8125 69.390625 
Q 13.765625 71.78125 18.9375 73 
Q 24.125 74.21875 28.421875 74.21875 
Q 39.75 74.21875 46.484375 68.546875 
Q 53.21875 62.890625 53.21875 53.421875 
Q 53.21875 48.921875 51.53125 44.890625 
Q 49.859375 40.875 45.40625 35.40625 
Q 44.1875 33.984375 37.640625 27.21875 
Q 31.109375 20.453125 19.1875 8.296875 
z
" id="DejaVuSans-50"/>
        <path d="M 10.6875 12.40625 
L 21 12.40625 
L 21 0 
L 10.6875 0 
z
" id="DejaVuSans-46"/>
        <path d="M 31.78125 66.40625 
Q 24.171875 66.40625 20.328125 58.90625 
Q 16.5 51.421875 16.5 36.375 
Q 16.5 21.390625 20.328125 13.890625 
Q 24.171875 6.390625 31.78125 6.390625 
Q 39.453125 6.390625 43.28125 13.890625 
Q 47.125 21.390625 47.125 36.375 
Q 47.125 51.421875 43.28125 58.90625 
Q 39.453125 66.40625 31.78125 66.40625 
z
M 31.78125 74.21875 
Q 44.046875 74.21875 50.515625 64.515625 
Q 56.984375 54.828125 56.984375 36.375 
Q 56.984375 17.96875 50.515625 8.265625 
Q 44.046875 -1.421875 31.78125 -1.421875 
Q 19.53125 -1.421875 13.0625 8.265625 
Q 6.59375 17.96875 6.59375 36.375 
Q 6.59375 54.828125 13.0625 64.515625 
Q 19.53125 74.21875 31.78125 74.21875 
z
" id="DejaVuSans-48"/>
       </defs>
       <use xlink:href="#DejaVuSans-8722"/>
       <use x="83.789062" xlink:href="#DejaVuSans-50"/>
       <use x="147.412109" xlink:href="#DejaVuSans-46"/>
       <use x="179.199219" xlink:href="#DejaVuSans-48"/>
      </g>
     </g>
    </g>
    <g id="xtick_2">
     <g id="line2d_3">
      <g>
       <use style="stroke:#000000;stroke-width:0.8;" x="125.140909" xlink:href="#mde2624c6c1" y="288.36"/>
      </g>
     </g>
     <g id="text_2">
      <!-- −1.5 -->
      <g transform="translate(112.999503 302.958438)scale(0.1 -0.1)">
       <defs>
        <path d="M 12.40625 8.296875 
L 28.515625 8.296875 
L 28.515625 63.921875 
L 10.984375 60.40625 
L 10.984375 69.390625 
L 28.421875 72.90625 
L 38.28125 72.90625 
L 38.28125 8.296875 
L 54.390625 8.296875 
L 54.390625 0 
L 12.40625 0 
z
" id="DejaVuSans-49"/>
        <path d="M 10.796875 72.90625 
L 49.515625 72.90625 
L 49.515625 64.59375 
L 19.828125 64.59375 
L 19.828125 46.734375 
Q 21.96875 47.46875 24.109375 47.828125 
Q 26.265625 48.1875 28.421875 48.1875 
Q 40.625 48.1875 47.75 41.5 
Q 54.890625 34.8125 54.890625 23.390625 
Q 54.890625 11.625 47.5625 5.09375 
Q 40.234375 -1.421875 26.90625 -1.421875 
Q 22.3125 -1.421875 17.546875 -0.640625 
Q 12.796875 0.140625 7.71875 1.703125 
L 7.71875 11.625 
Q 12.109375 9.234375 16.796875 8.0625 
Q 21.484375 6.890625 26.703125 6.890625 
Q 35.15625 6.890625 40.078125 11.328125 
Q 45.015625 15.765625 45.015625 23.390625 
Q 45.015625 31 40.078125 35.4375 
Q 35.15625 39.890625 26.703125 39.890625 
Q 22.75 39.890625 18.8125 39.015625 
Q 14.890625 38.140625 10.796875 36.28125 
z
" id="DejaVuSans-53"/>
       </defs>
       <use xlink:href="#DejaVuSans-8722"/>
       <use x="83.789062" xlink:href="#DejaVuSans-49"/>
       <use x="147.412109" xlink:href="#DejaVuSans-46"/>
       <use x="179.199219" xlink:href="#DejaVuSans-53"/>
      </g>
     </g>
    </g>
    <g id="xtick_3">
     <g id="line2d_4">
      <g>
       <use style="stroke:#000000;stroke-width:0.8;" x="169.527273" xlink:href="#mde2624c6c1" y="288.36"/>
      </g>
     </g>
     <g id="text_3">
      <!-- −1.0 -->
      <g transform="translate(157.385866 302.958438)scale(0.1 -0.1)">
       <use xlink:href="#DejaVuSans-8722"/>
       <use x="83.789062" xlink:href="#DejaVuSans-49"/>
       <use x="147.412109" xlink:href="#DejaVuSans-46"/>
       <use x="179.199219" xlink:href="#DejaVuSans-48"/>
      </g>
     </g>
    </g>
    <g id="xtick_4">
     <g id="line2d_5">
      <g>
       <use style="stroke:#000000;stroke-width:0.8;" x="213.913636" xlink:href="#mde2624c6c1" y="288.36"/>
      </g>
     </g>
     <g id="text_4">
      <!-- −0.5 -->
      <g transform="translate(201.77223 302.958438)scale(0.1 -0.1)">
       <use xlink:href="#DejaVuSans-8722"/>
       <use x="83.789062" xlink:href="#DejaVuSans-48"/>
       <use x="147.412109" xlink:href="#DejaVuSans-46"/>
       <use x="179.199219" xlink:href="#DejaVuSans-53"/>
      </g>
     </g>
    </g>
    <g id="xtick_5">
     <g id="line2d_6">
      <g>
       <use style="stroke:#000000;stroke-width:0.8;" x="258.3" xlink:href="#mde2624c6c1" y="288.36"/>
      </g>
     </g>
     <g id="text_5">
      <!-- 0.0 -->
      <g transform="translate(250.348438 302.958438)scale(0.1 -0.1)">
       <use xlink:href="#DejaVuSans-48"/>
       <use x="63.623047" xlink:href="#DejaVuSans-46"/>
       <use x="95.410156" xlink:href="#DejaVuSans-48"/>
      </g>
     </g>
    </g>
    <g id="xtick_6">
     <g id="line2d_7">
      <g>
       <use style="stroke:#000000;stroke-width:0.8;" x="302.686364" xlink:href="#mde2624c6c1" y="288.36"/>
      </g>
     </g>
     <g id="text_6">
      <!-- 0.5 -->
      <g transform="translate(294.734801 302.958438)scale(0.1 -0.1)">
       <use xlink:href="#DejaVuSans-48"/>
       <use x="63.623047" xlink:href="#DejaVuSans-46"/>
       <use x="95.410156" xlink:href="#DejaVuSans-53"/>
      </g>
     </g>
    </g>
    <g id="xtick_7">
     <g id="line2d_8">
      <g>
       <use style="stroke:#000000;stroke-width:0.8;" x="347.072727" xlink:href="#mde2624c6c1" y="288.36"/>
      </g>
     </g>
     <g id="text_7">
      <!-- 1.0 -->
      <g transform="translate(339.121165 302.958438)scale(0.1 -0.1)">
       <use xlink:href="#DejaVuSans-49"/>
       <use x="63.623047" xlink:href="#DejaVuSans-46"/>
       <use x="95.410156" xlink:href="#DejaVuSans-48"/>
      </g>
     </g>
    </g>
    <g id="xtick_8">
     <g id="line2d_9">
      <g>
       <use style="stroke:#000000;stroke-width:0.8;" x="391.459091" xlink:href="#mde2624c6c1" y="288.36"/>
      </g>
     </g>
     <g id="text_8">
      <!-- 1.5 -->
      <g transform="translate(383.507528 302.958438)scale(0.1 -0.1)">
       <use xlink:href="#DejaVuSans-49"/>
       <use x="63.623047" xlink:href="#DejaVuSans-46"/>
       <use x="95.410156" xlink:href="#DejaVuSans-53"/>
      </g>
     </g>
    </g>
    <g id="xtick_9">
     <g id="line2d_10">
      <g>
       <use style="stroke:#000000;stroke-width:0.8;" x="435.845455" xlink:href="#mde2624c6c1" y="288.36"/>
      </g>
     </g>
     <g id="text_9">
      <!-- 2.0 -->
      <g transform="translate(427.893892 302.958438)scale(0.1 -0.1)">
       <use xlink:href="#DejaVuSans-50"/>
       <use x="63.623047" xlink:href="#DejaVuSans-46"/>
       <use x="95.410156" xlink:href="#DejaVuSans-48"/>
      </g>
     </g>
    </g>
    <g id="text_10">
     <!-- $x$ -->
     <g transform="translate(255.3 316.636563)scale(0.1 -0.1)">
      <defs>
       <path d="M 60.015625 54.6875 
L 34.90625 27.875 
L 50.296875 0 
L 39.984375 0 
L 28.421875 21.6875 
L 8.296875 0 
L -2.59375 0 
L 24.3125 28.8125 
L 10.015625 54.6875 
L 20.3125 54.6875 
L 30.8125 34.90625 
L 49.125 54.6875 
z
" id="DejaVuSans-Oblique-120"/>
      </defs>
      <use transform="translate(0 0.3125)" xlink:href="#DejaVuSans-Oblique-120"/>
     </g>
    </g>
   </g>
   <g id="matplotlib.axis_2">
    <g id="ytick_1">
     <g id="line2d_11">
      <defs>
       <path d="M 0 0 
L -3.5 0 
" id="me7da1615b9" style="stroke:#000000;stroke-width:0.8;"/>
      </defs>
      <g>
       <use style="stroke:#000000;stroke-width:0.8;" x="63" xlink:href="#me7da1615b9" y="277.965"/>
      </g>
     </g>
     <g id="text_11">
      <!-- 0.00 -->
      <g transform="translate(33.734375 281.764219)scale(0.1 -0.1)">
       <use xlink:href="#DejaVuSans-48"/>
       <use x="63.623047" xlink:href="#DejaVuSans-46"/>
       <use x="95.410156" xlink:href="#DejaVuSans-48"/>
       <use x="159.033203" xlink:href="#DejaVuSans-48"/>
      </g>
     </g>
    </g>
    <g id="ytick_2">
     <g id="line2d_12">
      <g>
       <use style="stroke:#000000;stroke-width:0.8;" x="63" xlink:href="#me7da1615b9" y="244.16204"/>
      </g>
     </g>
     <g id="text_12">
      <!-- 0.05 -->
      <g transform="translate(33.734375 247.961259)scale(0.1 -0.1)">
       <use xlink:href="#DejaVuSans-48"/>
       <use x="63.623047" xlink:href="#DejaVuSans-46"/>
       <use x="95.410156" xlink:href="#DejaVuSans-48"/>
       <use x="159.033203" xlink:href="#DejaVuSans-53"/>
      </g>
     </g>
    </g>
    <g id="ytick_3">
     <g id="line2d_13">
      <g>
       <use style="stroke:#000000;stroke-width:0.8;" x="63" xlink:href="#me7da1615b9" y="210.359081"/>
      </g>
     </g>
     <g id="text_13">
      <!-- 0.10 -->
      <g transform="translate(33.734375 214.158299)scale(0.1 -0.1)">
       <use xlink:href="#DejaVuSans-48"/>
       <use x="63.623047" xlink:href="#DejaVuSans-46"/>
       <use x="95.410156" xlink:href="#DejaVuSans-49"/>
       <use x="159.033203" xlink:href="#DejaVuSans-48"/>
      </g>
     </g>
    </g>
    <g id="ytick_4">
     <g id="line2d_14">
      <g>
       <use style="stroke:#000000;stroke-width:0.8;" x="63" xlink:href="#me7da1615b9" y="176.556121"/>
      </g>
     </g>
     <g id="text_14">
      <!-- 0.15 -->
      <g transform="translate(33.734375 180.35534)scale(0.1 -0.1)">
       <use xlink:href="#DejaVuSans-48"/>
       <use x="63.623047" xlink:href="#DejaVuSans-46"/>
       <use x="95.410156" xlink:href="#DejaVuSans-49"/>
       <use x="159.033203" xlink:href="#DejaVuSans-53"/>
      </g>
     </g>
    </g>
    <g id="ytick_5">
     <g id="line2d_15">
      <g>
       <use style="stroke:#000000;stroke-width:0.8;" x="63" xlink:href="#me7da1615b9" y="142.753161"/>
      </g>
     </g>
     <g id="text_15">
      <!-- 0.20 -->
      <g transform="translate(33.734375 146.55238)scale(0.1 -0.1)">
       <use xlink:href="#DejaVuSans-48"/>
       <use x="63.623047" xlink:href="#DejaVuSans-46"/>
       <use x="95.410156" xlink:href="#DejaVuSans-50"/>
       <use x="159.033203" xlink:href="#DejaVuSans-48"/>
      </g>
     </g>
    </g>
    <g id="ytick_6">
     <g id="line2d_16">
      <g>
       <use style="stroke:#000000;stroke-width:0.8;" x="63" xlink:href="#me7da1615b9" y="108.950202"/>
      </g>
     </g>
     <g id="text_16">
      <!-- 0.25 -->
      <g transform="translate(33.734375 112.749421)scale(0.1 -0.1)">
       <use xlink:href="#DejaVuSans-48"/>
       <use x="63.623047" xlink:href="#DejaVuSans-46"/>
       <use x="95.410156" xlink:href="#DejaVuSans-50"/>
       <use x="159.033203" xlink:href="#DejaVuSans-53"/>
      </g>
     </g>
    </g>
    <g id="ytick_7">
     <g id="line2d_17">
      <g>
       <use style="stroke:#000000;stroke-width:0.8;" x="63" xlink:href="#me7da1615b9" y="75.147242"/>
      </g>
     </g>
     <g id="text_17">
      <!-- 0.30 -->
      <g transform="translate(33.734375 78.946461)scale(0.1 -0.1)">
       <defs>
        <path d="M 40.578125 39.3125 
Q 47.65625 37.796875 51.625 33 
Q 55.609375 28.21875 55.609375 21.1875 
Q 55.609375 10.40625 48.1875 4.484375 
Q 40.765625 -1.421875 27.09375 -1.421875 
Q 22.515625 -1.421875 17.65625 -0.515625 
Q 12.796875 0.390625 7.625 2.203125 
L 7.625 11.71875 
Q 11.71875 9.328125 16.59375 8.109375 
Q 21.484375 6.890625 26.8125 6.890625 
Q 36.078125 6.890625 40.9375 10.546875 
Q 45.796875 14.203125 45.796875 21.1875 
Q 45.796875 27.640625 41.28125 31.265625 
Q 36.765625 34.90625 28.71875 34.90625 
L 20.21875 34.90625 
L 20.21875 43.015625 
L 29.109375 43.015625 
Q 36.375 43.015625 40.234375 45.921875 
Q 44.09375 48.828125 44.09375 54.296875 
Q 44.09375 59.90625 40.109375 62.90625 
Q 36.140625 65.921875 28.71875 65.921875 
Q 24.65625 65.921875 20.015625 65.03125 
Q 15.375 64.15625 9.8125 62.3125 
L 9.8125 71.09375 
Q 15.4375 72.65625 20.34375 73.4375 
Q 25.25 74.21875 29.59375 74.21875 
Q 40.828125 74.21875 47.359375 69.109375 
Q 53.90625 64.015625 53.90625 55.328125 
Q 53.90625 49.265625 50.4375 45.09375 
Q 46.96875 40.921875 40.578125 39.3125 
z
" id="DejaVuSans-51"/>
       </defs>
       <use xlink:href="#DejaVuSans-48"/>
       <use x="63.623047" xlink:href="#DejaVuSans-46"/>
       <use x="95.410156" xlink:href="#DejaVuSans-51"/>
       <use x="159.033203" xlink:href="#DejaVuSans-48"/>
      </g>
     </g>
    </g>
    <g id="ytick_8">
     <g id="line2d_18">
      <g>
       <use style="stroke:#000000;stroke-width:0.8;" x="63" xlink:href="#me7da1615b9" y="41.344283"/>
      </g>
     </g>
     <g id="text_18">
      <!-- 0.35 -->
      <g transform="translate(33.734375 45.143501)scale(0.1 -0.1)">
       <use xlink:href="#DejaVuSans-48"/>
       <use x="63.623047" xlink:href="#DejaVuSans-46"/>
       <use x="95.410156" xlink:href="#DejaVuSans-51"/>
       <use x="159.033203" xlink:href="#DejaVuSans-53"/>
      </g>
     </g>
    </g>
    <g id="text_19">
     <!-- $x^2 \cdot f(x)$ -->
     <g transform="translate(27.654687 181.37)rotate(-90)scale(0.1 -0.1)">
      <defs>
       <path d="M 10.6875 40.921875 
L 21 40.921875 
L 21 28.515625 
L 10.6875 28.515625 
z
" id="DejaVuSans-8901"/>
       <path d="M 47.796875 75.984375 
L 46.390625 68.5 
L 37.796875 68.5 
Q 32.90625 68.5 30.6875 66.578125 
Q 28.46875 64.65625 27.390625 59.515625 
L 26.421875 54.6875 
L 41.21875 54.6875 
L 39.890625 47.703125 
L 25.09375 47.703125 
L 15.828125 0 
L 6.78125 0 
L 16.109375 47.703125 
L 7.515625 47.703125 
L 8.796875 54.6875 
L 17.390625 54.6875 
L 18.109375 58.5 
Q 19.96875 68.171875 24.625 72.078125 
Q 29.296875 75.984375 39.3125 75.984375 
z
" id="DejaVuSans-Oblique-102"/>
       <path d="M 31 75.875 
Q 24.46875 64.65625 21.28125 53.65625 
Q 18.109375 42.671875 18.109375 31.390625 
Q 18.109375 20.125 21.3125 9.0625 
Q 24.515625 -2 31 -13.1875 
L 23.1875 -13.1875 
Q 15.875 -1.703125 12.234375 9.375 
Q 8.59375 20.453125 8.59375 31.390625 
Q 8.59375 42.28125 12.203125 53.3125 
Q 15.828125 64.359375 23.1875 75.875 
z
" id="DejaVuSans-40"/>
       <path d="M 8.015625 75.875 
L 15.828125 75.875 
Q 23.140625 64.359375 26.78125 53.3125 
Q 30.421875 42.28125 30.421875 31.390625 
Q 30.421875 20.453125 26.78125 9.375 
Q 23.140625 -1.703125 15.828125 -13.1875 
L 8.015625 -13.1875 
Q 14.5 -2 17.703125 9.0625 
Q 20.90625 20.125 20.90625 31.390625 
Q 20.90625 42.671875 17.703125 53.65625 
Q 14.5 64.65625 8.015625 75.875 
z
" id="DejaVuSans-41"/>
      </defs>
      <use transform="translate(0 0.765625)" xlink:href="#DejaVuSans-Oblique-120"/>
      <use transform="translate(63.645833 39.046875)scale(0.7)" xlink:href="#DejaVuSans-50"/>
      <use transform="translate(130.398763 0.765625)" xlink:href="#DejaVuSans-8901"/>
      <use transform="translate(181.668294 0.765625)" xlink:href="#DejaVuSans-Oblique-102"/>
      <use transform="translate(216.873372 0.765625)" xlink:href="#DejaVuSans-40"/>
      <use transform="translate(255.887044 0.765625)" xlink:href="#DejaVuSans-Oblique-120"/>
      <use transform="translate(315.066732 0.765625)" xlink:href="#DejaVuSans-41"/>
     </g>
    </g>
   </g>
   <g id="patch_3">
    <path d="M 63 288.36 
L 63 38.88 
" style="fill:none;stroke:#000000;stroke-linecap:square;stroke-linejoin:miter;stroke-width:0.8;"/>
   </g>
   <g id="patch_4">
    <path d="M 453.6 288.36 
L 453.6 38.88 
" style="fill:none;stroke:#000000;stroke-linecap:square;stroke-linejoin:miter;stroke-width:0.8;"/>
   </g>
   <g id="patch_5">
    <path d="M 63 288.36 
L 453.6 288.36 
" style="fill:none;stroke:#000000;stroke-linecap:square;stroke-linejoin:miter;stroke-width:0.8;"/>
   </g>
   <g id="patch_6">
    <path d="M 63 38.88 
L 453.6 38.88 
" style="fill:none;stroke:#000000;stroke-linecap:square;stroke-linejoin:miter;stroke-width:0.8;"/>
   </g>
   <g id="legend_1">
    <g id="line2d_19">
     <path d="M 72 51.978437 
L 92 51.978437 
" style="fill:none;stroke:#000000;stroke-linecap:square;stroke-width:2;"/>
    </g>
    <g id="line2d_20"/>
    <g id="text_20">
     <!-- Integrand -->
     <g transform="translate(100 55.478437)scale(0.1 -0.1)">
      <defs>
       <path d="M 9.8125 72.90625 
L 19.671875 72.90625 
L 19.671875 0 
L 9.8125 0 
z
" id="DejaVuSans-73"/>
       <path d="M 54.890625 33.015625 
L 54.890625 0 
L 45.90625 0 
L 45.90625 32.71875 
Q 45.90625 40.484375 42.875 44.328125 
Q 39.84375 48.1875 33.796875 48.1875 
Q 26.515625 48.1875 22.3125 43.546875 
Q 18.109375 38.921875 18.109375 30.90625 
L 18.109375 0 
L 9.078125 0 
L 9.078125 54.6875 
L 18.109375 54.6875 
L 18.109375 46.1875 
Q 21.34375 51.125 25.703125 53.5625 
Q 30.078125 56 35.796875 56 
Q 45.21875 56 50.046875 50.171875 
Q 54.890625 44.34375 54.890625 33.015625 
z
" id="DejaVuSans-110"/>
       <path d="M 18.3125 70.21875 
L 18.3125 54.6875 
L 36.8125 54.6875 
L 36.8125 47.703125 
L 18.3125 47.703125 
L 18.3125 18.015625 
Q 18.3125 11.328125 20.140625 9.421875 
Q 21.96875 7.515625 27.59375 7.515625 
L 36.8125 7.515625 
L 36.8125 0 
L 27.59375 0 
Q 17.1875 0 13.234375 3.875 
Q 9.28125 7.765625 9.28125 18.015625 
L 9.28125 47.703125 
L 2.6875 47.703125 
L 2.6875 54.6875 
L 9.28125 54.6875 
L 9.28125 70.21875 
z
" id="DejaVuSans-116"/>
       <path d="M 56.203125 29.59375 
L 56.203125 25.203125 
L 14.890625 25.203125 
Q 15.484375 15.921875 20.484375 11.0625 
Q 25.484375 6.203125 34.421875 6.203125 
Q 39.59375 6.203125 44.453125 7.46875 
Q 49.3125 8.734375 54.109375 11.28125 
L 54.109375 2.78125 
Q 49.265625 0.734375 44.1875 -0.34375 
Q 39.109375 -1.421875 33.890625 -1.421875 
Q 20.796875 -1.421875 13.15625 6.1875 
Q 5.515625 13.8125 5.515625 26.8125 
Q 5.515625 40.234375 12.765625 48.109375 
Q 20.015625 56 32.328125 56 
Q 43.359375 56 49.78125 48.890625 
Q 56.203125 41.796875 56.203125 29.59375 
z
M 47.21875 32.234375 
Q 47.125 39.59375 43.09375 43.984375 
Q 39.0625 48.390625 32.421875 48.390625 
Q 24.90625 48.390625 20.390625 44.140625 
Q 15.875 39.890625 15.1875 32.171875 
z
" id="DejaVuSans-101"/>
       <path d="M 45.40625 27.984375 
Q 45.40625 37.75 41.375 43.109375 
Q 37.359375 48.484375 30.078125 48.484375 
Q 22.859375 48.484375 18.828125 43.109375 
Q 14.796875 37.75 14.796875 27.984375 
Q 14.796875 18.265625 18.828125 12.890625 
Q 22.859375 7.515625 30.078125 7.515625 
Q 37.359375 7.515625 41.375 12.890625 
Q 45.40625 18.265625 45.40625 27.984375 
z
M 54.390625 6.78125 
Q 54.390625 -7.171875 48.1875 -13.984375 
Q 42 -20.796875 29.203125 -20.796875 
Q 24.46875 -20.796875 20.265625 -20.09375 
Q 16.0625 -19.390625 12.109375 -17.921875 
L 12.109375 -9.1875 
Q 16.0625 -11.328125 19.921875 -12.34375 
Q 23.78125 -13.375 27.78125 -13.375 
Q 36.625 -13.375 41.015625 -8.765625 
Q 45.40625 -4.15625 45.40625 5.171875 
L 45.40625 9.625 
Q 42.625 4.78125 38.28125 2.390625 
Q 33.9375 0 27.875 0 
Q 17.828125 0 11.671875 7.65625 
Q 5.515625 15.328125 5.515625 27.984375 
Q 5.515625 40.671875 11.671875 48.328125 
Q 17.828125 56 27.875 56 
Q 33.9375 56 38.28125 53.609375 
Q 42.625 51.21875 45.40625 46.390625 
L 45.40625 54.6875 
L 54.390625 54.6875 
z
" id="DejaVuSans-103"/>
       <path d="M 41.109375 46.296875 
Q 39.59375 47.171875 37.8125 47.578125 
Q 36.03125 48 33.890625 48 
Q 26.265625 48 22.1875 43.046875 
Q 18.109375 38.09375 18.109375 28.8125 
L 18.109375 0 
L 9.078125 0 
L 9.078125 54.6875 
L 18.109375 54.6875 
L 18.109375 46.1875 
Q 20.953125 51.171875 25.484375 53.578125 
Q 30.03125 56 36.53125 56 
Q 37.453125 56 38.578125 55.875 
Q 39.703125 55.765625 41.0625 55.515625 
z
" id="DejaVuSans-114"/>
       <path d="M 34.28125 27.484375 
Q 23.390625 27.484375 19.1875 25 
Q 14.984375 22.515625 14.984375 16.5 
Q 14.984375 11.71875 18.140625 8.90625 
Q 21.296875 6.109375 26.703125 6.109375 
Q 34.1875 6.109375 38.703125 11.40625 
Q 43.21875 16.703125 43.21875 25.484375 
L 43.21875 27.484375 
z
M 52.203125 31.203125 
L 52.203125 0 
L 43.21875 0 
L 43.21875 8.296875 
Q 40.140625 3.328125 35.546875 0.953125 
Q 30.953125 -1.421875 24.3125 -1.421875 
Q 15.921875 -1.421875 10.953125 3.296875 
Q 6 8.015625 6 15.921875 
Q 6 25.140625 12.171875 29.828125 
Q 18.359375 34.515625 30.609375 34.515625 
L 43.21875 34.515625 
L 43.21875 35.40625 
Q 43.21875 41.609375 39.140625 45 
Q 35.0625 48.390625 27.6875 48.390625 
Q 23 48.390625 18.546875 47.265625 
Q 14.109375 46.140625 10.015625 43.890625 
L 10.015625 52.203125 
Q 14.9375 54.109375 19.578125 55.046875 
Q 24.21875 56 28.609375 56 
Q 40.484375 56 46.34375 49.84375 
Q 52.203125 43.703125 52.203125 31.203125 
z
" id="DejaVuSans-97"/>
       <path d="M 45.40625 46.390625 
L 45.40625 75.984375 
L 54.390625 75.984375 
L 54.390625 0 
L 45.40625 0 
L 45.40625 8.203125 
Q 42.578125 3.328125 38.25 0.953125 
Q 33.9375 -1.421875 27.875 -1.421875 
Q 17.96875 -1.421875 11.734375 6.484375 
Q 5.515625 14.40625 5.515625 27.296875 
Q 5.515625 40.1875 11.734375 48.09375 
Q 17.96875 56 27.875 56 
Q 33.9375 56 38.25 53.625 
Q 42.578125 51.265625 45.40625 46.390625 
z
M 14.796875 27.296875 
Q 14.796875 17.390625 18.875 11.75 
Q 22.953125 6.109375 30.078125 6.109375 
Q 37.203125 6.109375 41.296875 11.75 
Q 45.40625 17.390625 45.40625 27.296875 
Q 45.40625 37.203125 41.296875 42.84375 
Q 37.203125 48.484375 30.078125 48.484375 
Q 22.953125 48.484375 18.875 42.84375 
Q 14.796875 37.203125 14.796875 27.296875 
z
" id="DejaVuSans-100"/>
      </defs>
      <use xlink:href="#DejaVuSans-73"/>
      <use x="29.492188" xlink:href="#DejaVuSans-110"/>
      <use x="92.871094" xlink:href="#DejaVuSans-116"/>
      <use x="132.080078" xlink:href="#DejaVuSans-101"/>
      <use x="193.603516" xlink:href="#DejaVuSans-103"/>
      <use x="257.080078" xlink:href="#DejaVuSans-114"/>
      <use x="298.193359" xlink:href="#DejaVuSans-97"/>
      <use x="359.472656" xlink:href="#DejaVuSans-110"/>
      <use x="422.851562" xlink:href="#DejaVuSans-100"/>
     </g>
    </g>
    <g id="line2d_21">
     <path d="M 168.634375 51.978437 
L 188.634375 51.978437 
" style="fill:none;stroke:#0000ff;stroke-dasharray:1.5,2.475;stroke-dashoffset:0;stroke-width:1.5;"/>
    </g>
    <g id="line2d_22"/>
    <g id="text_21">
     <!-- Bounding rectangle -->
     <g transform="translate(196.634375 55.478437)scale(0.1 -0.1)">
      <defs>
       <path d="M 19.671875 34.8125 
L 19.671875 8.109375 
L 35.5 8.109375 
Q 43.453125 8.109375 47.28125 11.40625 
Q 51.125 14.703125 51.125 21.484375 
Q 51.125 28.328125 47.28125 31.5625 
Q 43.453125 34.8125 35.5 34.8125 
z
M 19.671875 64.796875 
L 19.671875 42.828125 
L 34.28125 42.828125 
Q 41.5 42.828125 45.03125 45.53125 
Q 48.578125 48.25 48.578125 53.8125 
Q 48.578125 59.328125 45.03125 62.0625 
Q 41.5 64.796875 34.28125 64.796875 
z
M 9.8125 72.90625 
L 35.015625 72.90625 
Q 46.296875 72.90625 52.390625 68.21875 
Q 58.5 63.53125 58.5 54.890625 
Q 58.5 48.1875 55.375 44.234375 
Q 52.25 40.28125 46.1875 39.3125 
Q 53.46875 37.75 57.5 32.78125 
Q 61.53125 27.828125 61.53125 20.40625 
Q 61.53125 10.640625 54.890625 5.3125 
Q 48.25 0 35.984375 0 
L 9.8125 0 
z
" id="DejaVuSans-66"/>
       <path d="M 30.609375 48.390625 
Q 23.390625 48.390625 19.1875 42.75 
Q 14.984375 37.109375 14.984375 27.296875 
Q 14.984375 17.484375 19.15625 11.84375 
Q 23.34375 6.203125 30.609375 6.203125 
Q 37.796875 6.203125 41.984375 11.859375 
Q 46.1875 17.53125 46.1875 27.296875 
Q 46.1875 37.015625 41.984375 42.703125 
Q 37.796875 48.390625 30.609375 48.390625 
z
M 30.609375 56 
Q 42.328125 56 49.015625 48.375 
Q 55.71875 40.765625 55.71875 27.296875 
Q 55.71875 13.875 49.015625 6.21875 
Q 42.328125 -1.421875 30.609375 -1.421875 
Q 18.84375 -1.421875 12.171875 6.21875 
Q 5.515625 13.875 5.515625 27.296875 
Q 5.515625 40.765625 12.171875 48.375 
Q 18.84375 56 30.609375 56 
z
" id="DejaVuSans-111"/>
       <path d="M 8.5 21.578125 
L 8.5 54.6875 
L 17.484375 54.6875 
L 17.484375 21.921875 
Q 17.484375 14.15625 20.5 10.265625 
Q 23.53125 6.390625 29.59375 6.390625 
Q 36.859375 6.390625 41.078125 11.03125 
Q 45.3125 15.671875 45.3125 23.6875 
L 45.3125 54.6875 
L 54.296875 54.6875 
L 54.296875 0 
L 45.3125 0 
L 45.3125 8.40625 
Q 42.046875 3.421875 37.71875 1 
Q 33.40625 -1.421875 27.6875 -1.421875 
Q 18.265625 -1.421875 13.375 4.4375 
Q 8.5 10.296875 8.5 21.578125 
z
M 31.109375 56 
z
" id="DejaVuSans-117"/>
       <path d="M 9.421875 54.6875 
L 18.40625 54.6875 
L 18.40625 0 
L 9.421875 0 
z
M 9.421875 75.984375 
L 18.40625 75.984375 
L 18.40625 64.59375 
L 9.421875 64.59375 
z
" id="DejaVuSans-105"/>
       <path id="DejaVuSans-32"/>
       <path d="M 48.78125 52.59375 
L 48.78125 44.1875 
Q 44.96875 46.296875 41.140625 47.34375 
Q 37.3125 48.390625 33.40625 48.390625 
Q 24.65625 48.390625 19.8125 42.84375 
Q 14.984375 37.3125 14.984375 27.296875 
Q 14.984375 17.28125 19.8125 11.734375 
Q 24.65625 6.203125 33.40625 6.203125 
Q 37.3125 6.203125 41.140625 7.25 
Q 44.96875 8.296875 48.78125 10.40625 
L 48.78125 2.09375 
Q 45.015625 0.34375 40.984375 -0.53125 
Q 36.96875 -1.421875 32.421875 -1.421875 
Q 20.0625 -1.421875 12.78125 6.34375 
Q 5.515625 14.109375 5.515625 27.296875 
Q 5.515625 40.671875 12.859375 48.328125 
Q 20.21875 56 33.015625 56 
Q 37.15625 56 41.109375 55.140625 
Q 45.0625 54.296875 48.78125 52.59375 
z
" id="DejaVuSans-99"/>
       <path d="M 9.421875 75.984375 
L 18.40625 75.984375 
L 18.40625 0 
L 9.421875 0 
z
" id="DejaVuSans-108"/>
      </defs>
      <use xlink:href="#DejaVuSans-66"/>
      <use x="68.603516" xlink:href="#DejaVuSans-111"/>
      <use x="129.785156" xlink:href="#DejaVuSans-117"/>
      <use x="193.164062" xlink:href="#DejaVuSans-110"/>
      <use x="256.542969" xlink:href="#DejaVuSans-100"/>
      <use x="320.019531" xlink:href="#DejaVuSans-105"/>
      <use x="347.802734" xlink:href="#DejaVuSans-110"/>
      <use x="411.181641" xlink:href="#DejaVuSans-103"/>
      <use x="474.658203" xlink:href="#DejaVuSans-32"/>
      <use x="506.445312" xlink:href="#DejaVuSans-114"/>
      <use x="545.308594" xlink:href="#DejaVuSans-101"/>
      <use x="606.832031" xlink:href="#DejaVuSans-99"/>
      <use x="661.8125" xlink:href="#DejaVuSans-116"/>
      <use x="701.021484" xlink:href="#DejaVuSans-97"/>
      <use x="762.300781" xlink:href="#DejaVuSans-110"/>
      <use x="825.679688" xlink:href="#DejaVuSans-103"/>
      <use x="889.15625" xlink:href="#DejaVuSans-108"/>
      <use x="916.939453" xlink:href="#DejaVuSans-101"/>
     </g>
    </g>
   </g>
   <g id="line2d_23">
    <path clip-path="url(#pfd2efc13f2)" d="M 80.754545 125.000728 
L 84.341322 118.889574 
L 87.928099 112.94451 
L 91.514876 107.207962 
L 95.101653 101.72334 
L 98.68843 96.534667 
L 102.275207 91.686169 
L 105.861983 87.221835 
L 109.44876 83.184951 
L 113.035537 79.617606 
L 116.622314 76.56019 
L 120.209091 74.05087 
L 123.795868 72.125066 
L 127.382645 70.814931 
L 130.969421 70.148831 
L 134.556198 70.150851 
L 138.142975 70.840319 
L 141.729752 72.231366 
L 145.316529 74.332526 
L 148.903306 77.146377 
L 152.490083 80.669248 
L 156.07686 84.89098 
L 159.663636 89.794758 
L 163.250413 95.357017 
L 166.83719 101.547424 
L 170.423967 108.328949 
L 174.010744 115.658009 
L 177.597521 123.48471 
L 181.184298 131.753169 
L 184.771074 140.401918 
L 188.357851 149.3644 
L 191.944628 158.569531 
L 195.531405 167.942344 
L 199.118182 177.404697 
L 202.704959 186.876037 
L 206.291736 196.274216 
L 209.878512 205.516347 
L 213.465289 214.519687 
L 217.052066 223.202539 
L 220.638843 231.485157 
L 224.22562 239.290646 
L 227.812397 246.545843 
L 231.399174 253.182162 
L 234.98595 259.136398 
L 238.572727 264.351474 
L 242.159504 268.777123 
L 245.746281 272.370489 
L 249.333058 275.096644 
L 252.919835 276.929015 
L 256.506612 277.849702 
L 260.093388 277.849702 
L 263.680165 276.929015 
L 267.266942 275.096644 
L 270.853719 272.370489 
L 274.440496 268.777123 
L 278.027273 264.351474 
L 281.61405 259.136398 
L 285.200826 253.182162 
L 288.787603 246.545843 
L 292.37438 239.290646 
L 295.961157 231.485157 
L 299.547934 223.202539 
L 303.134711 214.519687 
L 306.721488 205.516347 
L 310.308264 196.274216 
L 313.895041 186.876037 
L 317.481818 177.404697 
L 321.068595 167.942344 
L 324.655372 158.569531 
L 328.242149 149.3644 
L 331.828926 140.401918 
L 335.415702 131.753169 
L 339.002479 123.48471 
L 342.589256 115.658009 
L 346.176033 108.328949 
L 349.76281 101.547424 
L 353.349587 95.357017 
L 356.936364 89.794758 
L 360.52314 84.89098 
L 364.109917 80.669248 
L 367.696694 77.146377 
L 371.283471 74.332526 
L 374.870248 72.231366 
L 378.457025 70.840319 
L 382.043802 70.150851 
L 385.630579 70.148831 
L 389.217355 70.814931 
L 392.804132 72.125066 
L 396.390909 74.05087 
L 399.977686 76.56019 
L 403.564463 79.617606 
L 407.15124 83.184951 
L 410.738017 87.221835 
L 414.324793 91.686169 
L 417.91157 96.534667 
L 421.498347 101.72334 
L 425.085124 107.207962 
L 428.671901 112.94451 
L 432.258678 118.889574 
L 435.845455 125.000728 
" style="fill:none;stroke:#000000;stroke-linecap:square;stroke-width:2;"/>
   </g>
  </g>
 </g>
 <defs>
  <clipPath id="pfd2efc13f2">
   <rect height="249.48" width="390.6" x="63" y="38.88"/>
  </clipPath>
 </defs>
</svg>
